<?xml version="1.0" encoding="UTF-8" standalone="no"?>
<!-- Generator: Adobe Illustrator 26.3.1, SVG Export Plug-In . SVG Version: 6.00 Build 0)  -->

<svg
   version="1.1"
   id="Layer_1"
   x="0px"
   y="0px"
   viewBox="0 0 100 100"
   style="enable-background:new 0 0 100 100;"
   xml:space="preserve"
   xmlns="http://www.w3.org/2000/svg"
   xmlns:svg="http://www.w3.org/2000/svg"><defs
   id="defs62"><clipPath
     clipPathUnits="userSpaceOnUse"
     id="clipPath1742"><g
       id="use1744"
       style="stroke:none;stroke-opacity:1" /></clipPath><clipPath
     clipPathUnits="userSpaceOnUse"
     id="clipPath3931"><g
       id="use3933"
       style="stroke:none;stroke-opacity:1"><g
         id="g4133"
         style="stroke:none;stroke-opacity:1" /></g></clipPath></defs>
<path
   id="path57"
   style="display:inline"
   d="M 13.910156 5.3007812 C 9.180166 5.3007812 5.3105469 9.1703998 5.3105469 13.900391 L 5.3105469 86.080078 C 5.3105469 90.810068 9.180166 94.679687 13.910156 94.679688 L 86.089844 94.679688 C 90.819834 94.679688 94.689453 90.810068 94.689453 86.080078 L 94.689453 13.910156 C 94.689453 9.170166 90.819834 5.3007813 86.089844 5.3007812 L 13.910156 5.3007812 z M 52.4375 8.9414062 C 63.68741 8.9414062 74.936266 12.410876 81.875 19.349609 C 84.392297 21.866907 84.392297 27.511999 81.875 30.029297 C 70.78306 41.121237 45.908346 18.937357 34.816406 30.029297 C 24.209815 40.635888 24.209815 64.422705 34.816406 75.029297 C 43.369253 83.582143 62.550624 83.582099 71.103516 75.029297 C 75.228323 70.904533 75.22828 61.654104 71.103516 57.529297 C 65.902602 52.328329 54.238088 62.730201 49.037109 57.529297 C 46.090812 54.583043 46.090855 47.975594 49.037109 45.029297 C 56.698287 37.368009 73.879783 37.368065 81.541016 45.029297 C 89.950864 53.439145 89.950864 72.299136 81.541016 80.708984 C 67.74235 94.50765 36.796712 94.50765 22.998047 80.708984 C 8.5353709 66.246308 8.5353709 33.812286 22.998047 19.349609 C 29.93678 12.410876 41.18759 8.9414062 52.4375 8.9414062 z " />
<text
   xml:space="preserve"
   style="font-style:normal;font-variant:normal;font-weight:bold;font-stretch:normal;font-size:96px;line-height:1.25;font-family:FreeSans;-inkscape-font-specification:'FreeSans Bold';fill:#ffffff;fill-opacity:1;stroke:none"
   x="19.493332"
   y="80.463989"
   id="text1311"><tspan
     id="tspan1309"
     x="19.493332"
     y="80.463989" /></text></svg>
