<?xml version="1.0" encoding="UTF-8" standalone="no"?>
<!-- Generator: Adobe Illustrator 26.3.1, SVG Export Plug-In . SVG Version: 6.00 Build 0)  -->

<svg
   version="1.1"
   id="Layer_1"
   x="0px"
   y="0px"
   viewBox="0 0 100 100"
   style="enable-background:new 0 0 100 100;"
   xml:space="preserve"
   xmlns="http://www.w3.org/2000/svg"
   xmlns:svg="http://www.w3.org/2000/svg"><defs
   id="defs62"><clipPath
     clipPathUnits="userSpaceOnUse"
     id="clipPath1742"><g
       id="use1744"
       style="stroke:none;stroke-opacity:1" /></clipPath><clipPath
     clipPathUnits="userSpaceOnUse"
     id="clipPath3931"><g
       id="use3933"
       style="stroke:none;stroke-opacity:1"><g
         id="g4133"
         style="stroke:none;stroke-opacity:1" /></g></clipPath></defs>
<path
   id="path57"
   style="display:inline"
   d="m 13.910156,5.3007812 c -4.729995,0 -8.5996091,3.8696142 -8.5996091,8.5996098 v 72.179687 c 0,4.729995 3.8696141,8.599609 8.5996091,8.59961 h 72.179688 c 4.729995,0 8.599609,-3.869615 8.599609,-8.59961 V 13.910156 c 0,-4.739995 -3.869614,-8.6093747 -8.599609,-8.6093748 z M 66.511719,19.31 H 84.089844 V 80.689922 H 72.059 c -0.113623,-16.40084 0,-47.740703 0,-47.740703 L 56.613281,80.689922 H 44.751953 L 29.852,32.677734 c 0,0 0.384894,31.440626 0.384894,48.012188 l -11.256425,1.56e-4 V 19.31 h 17.580078 l 14.548828,46.818906 z" />
</svg>
